<?xml version="1.0" standalone="no"?>
<!DOCTYPE svg PUBLIC "-//W3C//DTD SVG 20010904//EN"
 "http://www.w3.org/TR/2001/REC-SVG-20010904/DTD/svg10.dtd">
<svg version="1.0" xmlns="http://www.w3.org/2000/svg"
 width="240.000000pt" height="240.000000pt" viewBox="0 0 240.000000 240.000000"
 preserveAspectRatio="xMidYMid meet">

<g transform="translate(0.000000,240.000000) scale(0.100000,-0.100000)"
fill="#000000" stroke="none">
<path d="M998 1614 l-238 -176 0 -238 0 -238 233 -173 c151 -113 241 -173 257
-174 l25 0 0 585 c0 577 0 585 -20 588 -13 2 -103 -59 -257 -174z"/>
<path d="M1698 1669 c-25 -14 -22 -40 12 -108 67 -132 97 -269 87 -405 -8
-115 -30 -195 -84 -305 l-46 -94 22 -19 c49 -39 73 -18 136 114 100 210 105
461 15 674 -56 132 -95 171 -142 143z"/>
<path d="M1527 1582 c-16 -18 -15 -23 22 -103 50 -108 64 -170 63 -283 -1
-107 -20 -184 -69 -284 l-36 -73 22 -22 c28 -28 46 -18 87 51 68 113 102 279
84 411 -14 104 -32 160 -78 246 -40 76 -65 90 -95 57z"/>
<path d="M1377 1513 c-12 -11 -8 -43 8 -66 26 -40 55 -138 61 -206 7 -83 -14
-188 -55 -268 -25 -51 -28 -63 -17 -78 21 -29 48 -13 82 50 76 139 86 317 26
460 -38 93 -79 135 -105 108z"/>
<path d="M514 1426 c-18 -13 -19 -28 -19 -226 0 -249 -4 -240 110 -240 119 0
115 -7 115 240 0 204 0 209 -22 224 -30 21 -156 22 -184 2z"/>
</g>
</svg>
